# xmcd
#
# Track frame offsets: 
#        150
#        16709
#        29399
#        48929
#        67052
#        85789
#        105575
#        118917
#        134776
#        146637
#        150304
#
# Disc length: 2195 seconds
#
# Revision: 0
# Processed by: cddbd v1.5.2PL0 Copyright (c) Steve Scherf et al.
# Submitted via: ExactAudioCopyFreeDBPlugin 1.0
#
DISCID=9108910b
DTITLE=Cuban Heels - Gritbag
DYEAR=2011
DGENRE=Blues
TTITLE0=Get Me Outta Here
TTITLE1=You Groove Me
TTITLE2=Don't Worry
TTITLE3=Rosie
TTITLE4=The Bonedigger
TTITLE5=Over The Moon
TTITLE6=Monkey On My Bag
TTITLE7=Believe I'm Going Down
TTITLE8=Gritbag
TTITLE9=Goin' Down To the River
TTITLE10=Big Bird
EXTD=
EXTT0=
EXTT1=
EXTT2=
EXTT3=
EXTT4=
EXTT5=
EXTT6=
EXTT7=
EXTT8=
EXTT9=
EXTT10=
PLAYORDER=
